PathFileType	3	(X/Y/Z)	D:\Vicon Database\Healthy Subjects\S0040\Jan. 30, 2020\Static Calibration.trc
DataRate	CameraRate	NumFrames	NumMarkers	Units	OrigDataRate	OrigDataStartFrame	OrigNumFrames
100.0	100.0	4	69	mm	100.0	76	300	
Frame#	Time	sternum_cluster1			sternum_cluster2			sternum_cluster3			left_asis			right_asis			left_psis			right_psis			sacrum_cluster1			sacrum_cluster2			sacrum_cluster3			left_lat_femoral_epicondyle			left_med_femoral_epicondyle			left_anterior_thigh15			left_anterior_thigh25			left_anterior_thigh50			left_lateral_thigh25			left_lateral_thigh50			left_trochanter			left_thigh_cluster1			left_thigh_cluster2			left_thigh_cluster3			left_lateral_tibial_condyle			left_medial_tibial_condyle			left_fibular_head			left_tibial_tuberosity			left_anterior_shank30			left_lateral_malleolus			left_medial_malleolus			left_shank_cluster1			left_shank_cluster2			left_shank_cluster3			left_heel			left_metatarsal2			left_metatarsal5			left_metatarsal1			left_toe_tip			left_foot_cluster1			left_foot_cluster2			left_foot_cluster3			right_lat_femoral_epicondyle			right_med_femoral_epicondyle			right_anterior_thigh15			right_anterior_thigh25			right_anterior_thigh50			right_lateral_thigh25			right_lateral_thigh50			right_trochanter			right_thigh_cluster1			right_thigh_cluster2			right_thigh_cluster3			right_lateral_tibial_condyle			right_medial_tibial_condyle			right_fibular_head			right_tibial_tuberosity			right_lateral_distal_shank			right_anterior_shank30			right_lateral_malleolus			right_medial_malleolus			right_shank_cluster1			right_shank_cluster2			right_shank_cluster3			right_heel			right_metatarsal2			right_metatarsal5			right_metatarsal1			right_toe_tip			right_foot_cluster1			right_foot_cluster2			right_foot_cluster3			
		X1	Y1	Z1	X2	Y2	Z2	X3	Y3	Z3	X4	Y4	Z4	X5	Y5	Z5	X6	Y6	Z6	X7	Y7	Z7	X8	Y8	Z8	X9	Y9	Z9	X10	Y10	Z10	X11	Y11	Z11	X12	Y12	Z12	X13	Y13	Z13	X14	Y14	Z14	X15	Y15	Z15	X16	Y16	Z16	X17	Y17	Z17	X18	Y18	Z18	X19	Y19	Z19	X20	Y20	Z20	X21	Y21	Z21	X22	Y22	Z22	X23	Y23	Z23	X24	Y24	Z24	X25	Y25	Z25	X26	Y26	Z26	X27	Y27	Z27	X28	Y28	Z28	X29	Y29	Z29	X30	Y30	Z30	X31	Y31	Z31	X32	Y32	Z32	X33	Y33	Z33	X34	Y34	Z34	X35	Y35	Z35	X36	Y36	Z36	X37	Y37	Z37	X38	Y38	Z38	X39	Y39	Z39	X40	Y40	Z40	X41	Y41	Z41	X42	Y42	Z42	X43	Y43	Z43	X44	Y44	Z44	X45	Y45	Z45	X46	Y46	Z46	X47	Y47	Z47	X48	Y48	Z48	X49	Y49	Z49	X50	Y50	Z50	X51	Y51	Z51	X52	Y52	Z52	X53	Y53	Z53	X54	Y54	Z54	X55	Y55	Z55	X56	Y56	Z56	X57	Y57	Z57	X58	Y58	Z58	X59	Y59	Z59	X60	Y60	Z60	X61	Y61	Z61	X62	Y62	Z62	X63	Y63	Z63	X64	Y64	Z64	X65	Y65	Z65	X66	Y66	Z66	X67	Y67	Z67	X68	Y68	Z68	X69	Y69	Z69	
76	0.75	776.71997	1473.2925	-225.40054	763.44287	1445.9143	-217.90491	766.25348	1449.4463	-255.71278	750.94507	1077.6438	-118.90707	758.58813	1085.9258	-367.16693	918.39313	1090.7583	-164.43695	924.06158	1096.2277	-281.16486	935.12006	1144.2861	-226.34184	940.26923	1119.1998	-238.97296	941.19214	1111.9941	-199.9939	872.6441	553.09552	-78.442436	860.1142	541.91284	-213.18448	765.71973	613.75275	-136.19582	733.2207	698.88977	-126.63916	718.29578	839.63391	-112.13865	845.18591	706.53479	-61.112091	815.79633	849.71991	-40.621567	815.42303	971.47412	-54.020523	821.01782	807.87286	-36.173519	827.71906	778.93134	-36.884071	790.03296	783.97205	-36.411167	878.72296	500.33713	-75.553856	872.80975	486.51868	-198.43248	879.49445	472.15097	-70.629807	822.09863	461.57123	-123.58405	820.71149	216.31607	-122.57516	858.85211	98.485886	-94.514214	841.54993	108.54193	-172.3027	816.06757	412.93774	-147.60068	809.52789	386.25729	-137.78734	821.61652	383.9039	-174.45593	926.71741	61.489334	-133.61148	708.76703	68.262032	-116.33252	735.24347	56.845882	-77.553932	713.50031	60.107693	-159.8421	657.27307	59.553528	-110.95083	771.96271	116.80901	-115.32042	747.70032	102.46671	-103.51772	741.84509	107.30877	-141.28041	850.07928	538.94336	-384.28979	844.46228	539.51019	-250.02211	758.64709	614.97308	-326.18411	729.66412	696.78778	-323.2608	715.68671	829.77014	-335.38556	828.82666	698.59576	-408.12433	813.32587	844.2937	-434.47006	816.43842	973.96344	-424.20963	826.43262	793.61053	-438.86017	816.83167	766.5318	-435.06775	855.95764	767.85583	-431.85217	861.6601	499.7739	-383.48438	847.93628	484.62451	-264.56061	869.25592	473.16748	-387.65952	813.08698	460.27667	-344.39105	873.76605	203.46312	-385.85489	827.27277	217.15923	-341.24042	869.48425	98.480278	-374.18701	855.41357	107.25132	-294.32898	821.12909	397.8978	-290.98679	825.40375	369.29306	-284.8815	803.04169	369.28851	-314.60666	940.39056	62.314838	-340.33698	721.50055	68.69101	-341.94156	755.9079	55.56184	-392.07471	731.30365	51.356594	-300.57813	670.75421	56.031681	-351.60745	779.08386	115.58161	-337.22012	754.54993	101.76179	-329.52692	755.4068	106.88098	-366.71884
77	0.76	776.77655	1473.2692	-225.38707	763.51147	1445.8817	-217.8925	766.31934	1449.3971	-255.69841	750.85205	1077.7271	-118.71581	758.62482	1085.9116	-367.12842	918.48395	1090.7056	-164.47083	924.12018	1096.2496	-281.21011	935.12354	1144.1283	-226.22778	940.34387	1119.137	-239.01918	941.26923	1111.9105	-199.96812	872.69867	553.06982	-78.397591	860.13159	541.93127	-213.1209	765.80627	613.73859	-136.1244	733.29022	698.89423	-126.57022	718.37018	839.64563	-112.05708	845.2923	706.50739	-61.103096	815.92297	849.70209	-40.59285	815.57416	971.43427	-54.010735	821.05176	807.95013	-36.07103	827.79395	778.9444	-36.803486	790.17285	783.91486	-36.348927	878.7915	500.33862	-75.519722	872.90869	486.45126	-198.37363	879.57196	472.13824	-70.612579	822.12738	461.5668	-123.53514	820.75751	216.29079	-122.53756	858.87036	98.466499	-94.497475	841.54828	108.54444	-172.27892	816.07556	412.96222	-147.5616	809.59698	386.23425	-137.73901	821.67755	383.86987	-174.44446	926.74792	61.464359	-133.63168	708.81458	68.20771	-116.31045	735.25732	56.824265	-77.526619	713.54584	60.071251	-159.81934	657.22278	59.616917	-110.86448	771.97552	116.80695	-115.29397	747.71515	102.44985	-103.47775	741.86414	107.29334	-141.24269	851.19287	539.07397	-383.71777	844.52185	539.48114	-250.00545	758.70636	614.95508	-326.12595	729.7041	696.78687	-323.16916	715.73199	829.74573	-335.30411	828.86438	698.54211	-408.14273	813.29553	844.28131	-434.43115	816.45392	973.93628	-424.18106	826.46271	793.58197	-438.80511	816.88708	766.49841	-435.02643	855.89917	767.76416	-431.9675	861.69653	499.72342	-383.47403	847.97717	484.61578	-264.53177	869.3161	473.13284	-387.66519	813.14722	460.26703	-344.35983	873.78564	203.42184	-385.83609	827.31238	217.12979	-341.20816	869.99121	98.376183	-373.86343	855.43762	107.23601	-294.32187	821.18097	397.85983	-290.96075	825.32715	369.39108	-284.82809	803.01794	369.30179	-314.54245	940.44781	62.251198	-340.37164	721.54449	68.646103	-341.91309	755.92877	55.552975	-392.0387	731.28912	51.379688	-300.52774	670.79773	56.017284	-351.595	779.13922	115.56416	-337.20831	754.61267	101.7571	-329.50906	755.47314	106.82967	-366.71283
78	0.77	776.84509	1473.2396	-225.40663	763.54608	1445.8907	-217.90677	766.36572	1449.3702	-255.71858	750.88318	1077.75	-118.68967	758.66205	1085.8877	-367.10727	918.54919	1090.7103	-164.49034	924.18622	1096.1952	-281.24695	935.16718	1144.1007	-226.2099	940.40961	1119.1306	-239.00497	941.31146	1111.9213	-200.01439	872.75043	553.04205	-78.415848	860.2063	541.8634	-213.13202	765.83942	613.74243	-136.08968	733.33331	698.88123	-126.53091	718.42065	839.65356	-112.00574	845.3598	706.52118	-61.105991	815.99023	849.70026	-40.579876	815.66156	971.41205	-54.015438	821.1972	807.84448	-36.127846	827.84778	778.94971	-36.782143	790.21344	783.9649	-36.352917	878.82355	500.3252	-75.536797	872.90765	486.45465	-198.37224	879.59808	472.13571	-70.622391	822.15283	461.56204	-123.51875	820.7558	216.31596	-122.53876	858.89404	98.441711	-94.521233	841.55872	108.53564	-172.2775	816.14978	412.92786	-147.57379	809.60767	386.25018	-137.72739	821.69617	383.86664	-174.40294	926.77179	61.522236	-133.65697	708.81018	68.204285	-116.3159	735.23334	56.842297	-77.543732	713.57361	60.049042	-159.81219	657.29663	59.555458	-110.93144	771.99115	116.79552	-115.29334	747.74158	102.43311	-103.49036	741.8667	107.29726	-141.24033	850.25824	538.88849	-384.21945	844.53754	539.48059	-249.98528	758.71545	614.94525	-326.07565	729.70642	696.79108	-323.11005	715.73669	829.74677	-335.24692	828.85364	698.56598	-408.09802	813.26422	844.26874	-434.44287	816.46722	973.91064	-424.14319	826.51263	793.54547	-438.80322	816.83112	766.47241	-435.00833	855.81818	767.79358	-431.88116	861.71002	499.7149	-383.45978	848.07422	484.53677	-264.5029	869.32886	473.13763	-387.6395	813.1524	460.24454	-344.35129	873.82928	203.43689	-385.82156	827.33344	217.10834	-341.20956	870.0705	98.346024	-373.84689	855.42548	107.23463	-294.30466	821.1933	397.8873	-290.95648	825.36029	369.3302	-284.82852	803.05127	369.30493	-314.53784	940.4657	62.245892	-340.37738	721.54492	68.632896	-341.91934	755.97009	55.528095	-392.05405	731.32904	51.349449	-300.58542	670.79431	55.996429	-351.59583	779.12225	115.55564	-337.19394	754.61505	101.72355	-329.50214	755.45667	106.85537	-366.71152
79	0.78	776.86151	1473.2476	-225.45009	763.58197	1445.8824	-217.93266	766.37585	1449.3927	-255.74884	750.93652	1077.7813	-118.66619	758.62573	1085.9222	-367.08551	918.61658	1090.7588	-164.43947	924.18524	1096.2406	-281.22687	935.29968	1144.2797	-226.31239	940.42584	1119.1351	-238.9583	941.3606	1111.9146	-199.99879	872.73724	553.08923	-78.408966	860.16156	541.87646	-213.18002	765.85822	613.75806	-136.07219	733.37488	698.89258	-126.51585	718.46185	839.67157	-111.98505	845.37695	706.50708	-61.074516	816.02246	849.72852	-40.556797	815.66925	971.44611	-53.976807	821.24915	807.83746	-36.110729	827.89709	778.96106	-36.781071	790.26154	783.95184	-36.326347	878.84039	500.32751	-75.520576	872.8844	486.46805	-198.37799	879.61139	472.14694	-70.615295	822.15344	461.58331	-123.52969	820.7384	216.31799	-122.55162	858.85278	98.496117	-94.504807	841.52917	108.55352	-172.27968	816.13647	412.94119	-147.54768	809.60535	386.24979	-137.73038	821.6698	383.90839	-174.41037	926.7525	61.538734	-133.62277	708.776	68.232391	-116.33064	735.22821	56.855743	-77.552422	713.52124	60.084003	-159.81241	657.28851	59.582054	-110.96613	771.97467	116.79745	-115.31101	747.71179	102.44596	-103.53261	741.85956	107.28225	-141.2531	850.09015	538.9129	-384.25146	844.52234	539.5022	-249.96857	758.71155	614.95673	-326.05582	729.71722	696.80408	-323.09003	715.71979	829.77209	-335.21463	828.8551	698.57532	-408.05472	813.23218	844.26733	-434.41635	816.47626	973.93073	-424.15585	826.42151	793.58508	-438.78067	816.849	766.52747	-434.98419	855.82623	767.86261	-431.72705	861.64349	499.75	-383.46323	847.99603	484.6113	-264.54138	869.29327	473.14975	-387.62698	813.1311	460.25473	-344.34286	873.78864	203.45531	-385.81888	827.2561	217.15341	-341.198	869.96643	98.408585	-373.8671	855.41248	107.23291	-294.31851	821.20624	397.86557	-290.94385	825.38599	369.3165	-284.83511	803.06042	369.28012	-314.53519	940.43488	62.340187	-340.35855	721.50806	68.662483	-341.9238	755.91809	55.538094	-392.0694	731.2923	51.371788	-300.58121	670.7699	56.020554	-351.60483	779.11176	115.56748	-337.21371	754.58118	101.76305	-329.49133	755.44244	106.853	-366.70285
